<?xml version="1.0" encoding="UTF-8"?>
<svg width="169px" height="110px" viewBox="0 0 169 110" version="1.1" xmlns="http://www.w3.org/2000/svg" xmlns:xlink="http://www.w3.org/1999/xlink">
    <!-- Generator: Sketch 49.3 (51167) - http://www.bohemiancoding.com/sketch -->
    <title>Slice</title>
    <desc>Created with Sketch.</desc>
    <defs></defs>
    <g id="Page-1" stroke="none" stroke-width="1" fill="none" fill-rule="evenodd">
        <g id="iStock-945363150" fill="#C23335">
            <g id="Group">
                <path d="M94.5661824,62.2061149 C111.545574,57.3256081 124.333446,54.8368581 140.095777,55.6774662 C109.751385,65.4325338 90.2639189,75.1459797 76.2578716,86.8063514 C80.2758446,67.309223 83.0838176,57.1539189 86.5469595,48.4226689 C65.3897973,58.206723 42.6565878,69.0766554 23.5886824,79.8692905 C45.8127703,56.7655743 73.7122635,37.7645608 107.284561,22.8666216 C96.9040541,49.3743919 94.5661824,62.2061149 94.5661824,62.2061149" id="Fill-3"></path>
                <path d="M118.954595,0.224831081 C113.196689,0.224831081 108.527635,4.89388514 108.527635,10.6521622 C108.527635,16.4104392 113.196689,21.0791216 118.954595,21.0791216 C124.712872,21.0791216 129.381554,16.4104392 129.381554,10.6521622 C129.381554,4.89388514 124.712872,0.224831081 118.954595,0.224831081" id="Fill-4"></path>
                <path d="M71.2023311,74.1886824 C71.2023311,54.535473 55.2694257,38.6025676 35.6162162,38.6025676 C15.9626351,38.6025676 0.0297297297,54.535473 0.0297297297,74.1886824 C0.0297297297,93.8422635 15.9626351,109.775169 35.6162162,109.775169 C55.2694257,109.775169 71.2023311,93.8422635 71.2023311,74.1886824 Z M35.6162162,50.5275338 C48.6835473,50.5275338 59.2769932,61.1213514 59.2769932,74.1886824 C59.2769932,87.2563851 48.6835473,97.8498311 35.6162162,97.8498311 C22.5485135,97.8498311 11.9550676,87.2563851 11.9550676,74.1886824 C11.9550676,61.1213514 22.5485135,50.5275338 35.6162162,50.5275338 Z" id="Fill-5"></path>
                <path d="M133.1,38.6025676 C113.446419,38.6025676 97.5138851,54.535473 97.5138851,74.1886824 C97.5138851,93.8422635 113.446419,109.775169 133.1,109.775169 C152.753953,109.775169 168.686486,93.8422635 168.686486,74.1886824 C168.686486,54.535473 152.753953,38.6025676 133.1,38.6025676 Z M109.438851,74.1886824 C109.438851,61.1213514 120.032669,50.5275338 133.1,50.5275338 C146.167703,50.5275338 156.761149,61.1213514 156.761149,74.1886824 C156.761149,87.2563851 146.167703,97.8498311 133.1,97.8498311 C120.032669,97.8498311 109.438851,87.2563851 109.438851,74.1886824 Z" id="Fill-6"></path>
            </g>
        </g>
    </g>
</svg>